<svg xmlns="http://www.w3.org/2000/svg" width="30" height="30" viewBox="0 0 30 30">
    <g fill="none" fill-rule="evenodd">
        <path fill="#FFF" d="M30 15c0 8.284-6.716 15-15 15-8.284 0-15-6.716-15-15h30z"/>
        <path fill="#E94B35" d="M30 15c0-8.284-6.716-15-15-15C6.716 0 0 6.716 0 15h30z"/>
        <path fill="#FFF" d="M16.494 5.065l-.68.368.13-.78-.552-.552.762-.114.34-.71.34.71.762.114-.55.552.13.78-.682-.368zm2.4 1.744l-.56-.534.782-.118.355-.694.343.689.78.104-.57.543.128.76-.696-.354-.701.365.14-.761zm-.916 2.821l.334-.698.353.708.77.123-.548.54.141.774-.692-.374-.683.355.121-.77-.564-.555.768-.103zm-2.967 0l.767.103-.564.554.121.771-.682-.355-.693.374.142-.775-.55-.54.771-.122.353-.708.335.698zm-.917-2.821l.14.761-.702-.365-.695.354.127-.76-.57-.543.78-.104.344-.69.355.695.782.118-.561.534zm1.311 5.702a5.217 5.217 0 0 1-.866.072c-2.835 0-5.134-2.276-5.134-5.083 0-2.807 2.299-5.083 5.134-5.083.295 0 .585.024.866.072-2.422.408-4.266 2.496-4.266 5.011s1.844 4.603 4.266 5.011c0 0-2.422-.408 0 0z"/>
    </g>
</svg>
